<svg width="634" height="114" viewBox="0 0 634 114" fill="none" xmlns="http://www.w3.org/2000/svg">
<path d="M93.184 43.264C96.64 38.976 101.28 36.832 107.104 36.832C117.792 36.832 123.232 42.944 123.424 55.168V88H112.096V55.552C112.096 52.032 111.328 49.6 109.792 48.256C108.384 46.784 106.176 46.048 103.168 46.048C100.928 46.048 98.976 46.528 97.312 47.488C95.648 48.448 94.272 49.952 93.184 52V88H81.856V16.576H93.184V43.264ZM158.464 88C157.952 87.104 157.504 85.568 157.12 83.392C153.6 87.104 149.216 88.96 143.968 88.96C141.792 88.96 139.648 88.64 137.536 88C135.488 87.296 133.632 86.304 131.968 85.024C130.368 83.744 129.088 82.176 128.128 80.32C127.168 78.4 126.688 76.256 126.688 73.888C126.688 70.624 127.36 67.936 128.704 65.824C130.112 63.648 131.904 61.952 134.08 60.736C136.32 59.456 138.816 58.592 141.568 58.144C144.32 57.632 147.072 57.376 149.824 57.376H156.832V54.016C156.832 51.136 156.064 48.992 154.528 47.584C152.992 46.112 150.816 45.376 148 45.376C145.376 45.376 143.232 46.016 141.568 47.296C140.8 48 140.192 48.736 139.744 49.504C139.36 50.272 139.168 51.2 139.168 52.288H127.84C127.84 49.088 128.832 46.368 130.816 44.128C132.864 41.824 135.264 40.032 138.016 38.752C141.152 37.472 144.672 36.832 148.576 36.832C151.264 36.832 153.792 37.184 156.16 37.888C158.528 38.528 160.576 39.552 162.304 40.96C164.032 42.304 165.408 44.064 166.432 46.24C167.456 48.352 168 50.848 168.064 53.728V76.384C168.064 80.864 168.704 84.48 169.984 87.232V88H158.464ZM58.24 38.08H77.056V48.928H58.24C56.128 48.928 54.208 49.408 52.48 50.368C50.752 51.328 49.344 52.608 48.256 54.208H36.256C36.96 51.84 38.016 49.696 39.424 47.776C40.896 45.792 42.592 44.096 44.512 42.688C46.432 41.216 48.544 40.096 50.848 39.328C53.216 38.496 55.68 38.08 58.24 38.08ZM54.112 57.568C55.648 57.568 56.928 58.112 57.952 59.2C59.04 60.288 59.584 61.568 59.584 63.04C59.584 64.512 59.04 65.792 57.952 66.88C56.928 67.904 55.648 68.416 54.112 68.416H17.344V57.568H54.112ZM145.984 79.936C148.224 79.936 150.304 79.424 152.224 78.4C154.208 77.312 155.744 75.808 156.832 73.888V64.384H150.688C149.344 64.384 147.904 64.512 146.368 64.768C144.896 64.96 143.52 65.376 142.24 66.016C141.024 66.656 140 67.52 139.168 68.608C138.4 69.632 138.016 71.008 138.016 72.736C138.016 75.04 138.784 76.832 140.32 78.112C141.856 79.328 143.744 79.936 145.984 79.936ZM48.256 71.872C49.344 73.472 50.752 74.752 52.48 75.712C54.208 76.672 56.128 77.152 58.24 77.152H77.056V88H58.24C55.68 88 53.216 87.616 50.848 86.848C48.544 86.016 46.432 84.896 44.512 83.488C42.592 82.016 40.896 80.32 39.424 78.4C38.016 76.416 36.96 74.24 36.256 71.872H48.256ZM288.898 85.408C288.898 85.92 288.93 86.304 288.994 86.56C285.858 88.032 282.306 88.768 278.338 88.768C275.842 88.768 273.378 88.448 270.946 87.808C268.514 87.168 266.338 86.208 264.418 84.928C262.562 83.584 261.026 81.888 259.81 79.84C258.658 77.792 258.082 75.36 258.082 72.544H269.41C269.41 75.104 270.306 77.024 272.098 78.304C273.89 79.584 275.97 80.224 278.338 80.224C279.362 80.224 280.386 80.128 281.41 79.936C282.434 79.68 283.33 79.296 284.098 78.784C284.93 78.272 285.602 77.6 286.114 76.768C286.626 75.936 286.882 74.944 286.882 73.792C286.882 72.064 286.146 70.72 284.674 69.76C283.266 68.8 280.29 67.84 275.746 66.88C274.914 66.688 273.986 66.464 272.962 66.208C272.002 65.888 271.01 65.536 269.986 65.152C268.962 64.768 267.97 64.352 267.01 63.904C266.114 63.456 265.314 62.944 264.61 62.368H264.706C260.29 59.744 258.082 56.128 258.082 51.52C258.082 48.896 258.658 46.624 259.81 44.704C261.026 42.784 262.562 41.184 264.418 39.904C266.274 38.624 268.354 37.664 270.658 37.024C273.026 36.384 275.362 36.064 277.666 36.064C280.162 36.064 282.594 36.384 284.962 37.024C287.394 37.664 289.57 38.656 291.49 40C293.41 41.28 294.946 42.944 296.098 44.992C297.314 47.04 297.922 49.472 297.922 52.288H286.594C286.594 50.176 285.794 48.352 284.194 46.816C282.402 45.344 280.226 44.608 277.666 44.608C276.642 44.608 275.618 44.736 274.594 44.992C273.634 45.184 272.738 45.536 271.906 46.048C271.074 46.56 270.402 47.232 269.89 48.064C269.378 48.896 269.122 49.888 269.122 51.04C269.122 52.704 269.89 54.08 271.426 55.168C272.13 55.68 273.218 56.16 274.69 56.608C276.162 57.056 278.05 57.536 280.354 58.048C282.594 58.56 284.418 59.104 285.826 59.68C287.234 60.256 288.578 60.896 289.858 61.6C289.922 61.664 289.986 61.696 290.05 61.696C290.114 61.696 290.178 61.728 290.242 61.792L291.01 62.176C291.266 62.304 291.394 62.368 291.394 62.368H291.298C295.714 65.12 297.922 68.8 297.922 73.408C297.922 75.84 297.378 78.016 296.29 79.936C295.65 79.808 295.106 79.744 294.658 79.744C292.994 79.744 291.618 80.32 290.53 81.472C289.442 82.56 288.898 83.872 288.898 85.408ZM238.402 36.16C249.026 36.16 254.434 42.208 254.626 54.304V87.904H243.202V54.976C243.202 51.84 242.53 49.472 241.186 47.872C239.842 46.272 237.538 45.472 234.274 45.472C229.666 45.472 226.242 47.552 224.002 51.712V87.904H212.578V46.432L215.842 37.12H223.33L223.714 42.88C227.426 38.4 232.322 36.16 238.402 36.16ZM212.29 37.12L192.13 95.584C188.994 104.16 183.682 108.448 176.194 108.448C174.658 108.448 172.834 108.16 170.722 107.584V98.752L172.93 98.944C175.618 98.944 177.73 98.4 179.266 97.312C180.802 96.288 182.018 94.496 182.914 91.936L184.546 87.616L166.69 37.12H179.074L189.826 71.488L200.098 37.12H212.29ZM294.658 81.184C295.874 81.184 296.866 81.6 297.634 82.432C298.466 83.264 298.882 84.256 298.882 85.408C298.882 86.624 298.466 87.648 297.634 88.48C296.866 89.376 295.874 89.824 294.658 89.824C293.442 89.824 292.418 89.376 291.586 88.48C290.754 87.648 290.338 86.624 290.338 85.408C290.338 84.256 290.754 83.264 291.586 82.432C292.418 81.6 293.442 81.184 294.658 81.184ZM294.658 88.96C295.618 88.96 296.418 88.64 297.058 88C297.762 87.296 298.114 86.432 298.114 85.408C298.114 84.512 297.762 83.744 297.058 83.104C296.418 82.4 295.618 82.048 294.658 82.048C293.634 82.048 292.77 82.4 292.066 83.104C291.426 83.744 291.106 84.512 291.106 85.408C291.106 86.432 291.426 87.296 292.066 88C292.77 88.64 293.634 88.96 294.658 88.96ZM294.658 83.008C295.874 83.008 296.482 83.488 296.482 84.448C296.482 85.088 296.194 85.536 295.618 85.792L296.674 87.904H295.81L294.85 86.08H293.89V87.904H292.93V83.008H294.658ZM294.658 85.312C295.298 85.312 295.618 85.056 295.618 84.544C295.618 83.968 295.298 83.68 294.658 83.68H293.794V85.312H294.658ZM310.612 53.536H335.38V66.784H310.612V53.536ZM337.181 37.984H345.725V27.424L363.005 22.048V37.984H372.701V49.696H363.005V71.008C363.005 73.12 363.549 74.656 364.637 75.616C365.789 76.576 367.133 77.056 368.669 77.056C370.525 77.056 371.869 76.8 372.701 76.288L373.181 88C372.093 88.256 370.525 88.512 368.477 88.768C366.493 89.024 364.253 89.152 361.757 89.152C356.957 89.152 353.085 87.872 350.141 85.312C347.197 82.752 345.725 79.136 345.725 74.464V49.696H337.181V37.984ZM375.485 63.04C375.485 59.648 375.901 56.384 376.733 53.248C377.629 50.048 379.069 47.232 381.053 44.8C383.037 42.368 385.597 40.448 388.733 39.04C391.933 37.568 395.805 36.832 400.349 36.832C404.893 36.832 408.733 37.568 411.869 39.04C415.069 40.448 417.629 42.368 419.549 44.8C421.533 47.232 422.973 50.048 423.869 53.248C424.765 56.384 425.213 59.648 425.213 63.04C425.213 66.432 424.765 69.728 423.869 72.928C422.973 76.064 421.533 78.848 419.549 81.28C417.629 83.648 415.069 85.568 411.869 87.04C408.733 88.448 404.893 89.152 400.349 89.152C395.805 89.152 391.933 88.448 388.733 87.04C385.597 85.568 383.037 83.648 381.053 81.28C379.069 78.848 377.629 76.064 376.733 72.928C375.901 69.728 375.485 66.432 375.485 63.04ZM393.533 63.04C393.533 64.896 393.597 66.688 393.725 68.416C393.917 70.144 394.237 71.68 394.685 73.024C395.197 74.368 395.901 75.456 396.797 76.288C397.693 77.056 398.877 77.44 400.349 77.44C401.821 77.44 403.005 77.056 403.901 76.288C404.797 75.456 405.469 74.368 405.917 73.024C406.429 71.68 406.749 70.144 406.877 68.416C407.069 66.688 407.165 64.896 407.165 63.04C407.165 61.248 407.069 59.488 406.877 57.76C406.749 55.968 406.429 54.4 405.917 53.056C405.469 51.712 404.797 50.624 403.901 49.792C403.005 48.96 401.821 48.544 400.349 48.544C398.877 48.544 397.693 48.96 396.797 49.792C395.901 50.624 395.197 51.712 394.685 53.056C394.237 54.4 393.917 55.968 393.725 57.76C393.597 59.488 393.533 61.248 393.533 63.04ZM429.204 63.04C429.204 59.648 429.62 56.384 430.452 53.248C431.348 50.048 432.788 47.232 434.772 44.8C436.756 42.368 439.316 40.448 442.452 39.04C445.652 37.568 449.524 36.832 454.068 36.832C458.612 36.832 462.452 37.568 465.588 39.04C468.788 40.448 471.348 42.368 473.268 44.8C475.252 47.232 476.692 50.048 477.588 53.248C478.484 56.384 478.932 59.648 478.932 63.04C478.932 66.432 478.484 69.728 477.588 72.928C476.692 76.064 475.252 78.848 473.268 81.28C471.348 83.648 468.788 85.568 465.588 87.04C462.452 88.448 458.612 89.152 454.068 89.152C449.524 89.152 445.652 88.448 442.452 87.04C439.316 85.568 436.756 83.648 434.772 81.28C432.788 78.848 431.348 76.064 430.452 72.928C429.62 69.728 429.204 66.432 429.204 63.04ZM447.252 63.04C447.252 64.896 447.316 66.688 447.444 68.416C447.636 70.144 447.956 71.68 448.404 73.024C448.916 74.368 449.62 75.456 450.516 76.288C451.412 77.056 452.595 77.44 454.068 77.44C455.54 77.44 456.724 77.056 457.62 76.288C458.516 75.456 459.188 74.368 459.636 73.024C460.148 71.68 460.468 70.144 460.596 68.416C460.788 66.688 460.884 64.896 460.884 63.04C460.884 61.248 460.788 59.488 460.596 57.76C460.468 55.968 460.148 54.4 459.636 53.056C459.188 51.712 458.516 50.624 457.62 49.792C456.724 48.96 455.54 48.544 454.068 48.544C452.595 48.544 451.412 48.96 450.516 49.792C449.62 50.624 448.916 51.712 448.404 53.056C447.956 54.4 447.636 55.968 447.444 57.76C447.316 59.488 447.252 61.248 447.252 63.04ZM484.938 16H502.218V88H484.938V16ZM527.723 64.576H527.531V88H510.251V16H527.531V58.144H527.723L539.051 37.984H556.331L542.315 60.928L557.483 88H538.379L527.723 64.576ZM560.595 16H577.875V30.4H560.595V16ZM560.595 37.984H577.875V88H560.595V37.984ZM581.587 37.984H590.131V27.424L607.411 22.048V37.984H617.107V49.696H607.411V71.008C607.411 73.12 607.955 74.656 609.043 75.616C610.195 76.576 611.539 77.056 613.075 77.056C614.931 77.056 616.275 76.8 617.107 76.288L617.587 88C616.499 88.256 614.931 88.512 612.883 88.768C610.899 89.024 608.659 89.152 606.163 89.152C601.363 89.152 597.491 87.872 594.547 85.312C591.603 82.752 590.131 79.136 590.131 74.464V49.696H581.587V37.984Z" fill="#1A202E"/>
</svg>
